<svg class="banner_squiggle animated" viewBox="0 0 1680 907" fill="none" xmlns="http://www.w3.org/2000/svg">
	<path d="M-463 348.5C-430 393.5 -339 516.411 -134.5 484C-2 463 93.9058 456.08 160 595C214 708.5 273.5 751.5 361 772.5C405.446 783.167 528 786.5 654.5 734.5C722.5 706.547 819.729 664.5 867.5 576.5C993.745 343.944 784.481 75.123 404 210.5C137 305.5 151 545 225.5 682C254.231 734.835 397.008 915.065 684 903C810 903 1006.5 828.5 1115 722C1196.5 642.002 1294.5 651 1364.5 651C1662.53 651 1610.5 379.5 1610.5 330.5C1610.5 296.959 1593.5 63.8114 1761 13.5001C1897.5 -27.4999 2022 62.5001 2059 132.5" />
</svg>
