<svg class="blob_outline animated" viewBox="0 0 750 644" fill="none" xmlns="http://www.w3.org/2000/svg">
	<path d="M69.228 464.152C35.5311 403.207 17.4076 348.525 22.3485 234.354C26.1317 147.485 57.8484 110.34 102.929 62.5184C136.084 33.4451 193.573 12.6943 241.558 13.7193C317.258 18.5632 330.094 27.2241 368.977 41.5625C394.149 50.8099 414.899 59.4836 433.325 64.5799C500.68 83.1778 538.115 83.8911 585.337 94.8804C654.956 111.082 704.304 170.466 723.103 249.323C736.902 307.206 747.954 419.132 657.22 511.109C602.739 564.825 518.346 625.632 339.874 621.82L337.505 621.538C278.179 614.485 221.053 607.693 162.467 568.174C138.729 552.203 96.9798 514.249 69.228 464.152Z" />
</svg>
