<svg class="animated lightning_hand_squiggle" viewBox="0 0 3464 1009">
	<g transform="matrix(1,0,0,1,1224.37,8.36935)">
		<path d="M225.5,812.534L232,833.034L259.5,824.034L240,764.034L212.5,773.534L219,793.034C220.833,797.701 220.774,809.995 205,811.534C184.5,813.534 166.5,802.034 118.5,789.534C70.5,777.034 21,798.534 -37.5,837.034C-97.51,876.528 -217.983,878.993 -258.5,810.534C-287.5,761.534 -267.5,686.034 -229.5,650.034C-195.921,612.583 -145.5,588.534 -92,581.034C10.498,566.665 119.444,481.751 68,387.534C23.5,306.034 25.2,242.053 30,191.034C43.5,47.534 -54.423,-22.23 -130.5,13.034C-226.5,57.534 -225,128.534 -328.5,169.034C-360.162,181.424 -464.746,184.79 -546.5,138.534C-622.5,95.534 -728.5,130.034 -861,191.034C-1013.18,261.093 -1204,188.034 -1212,161.534" data-llp-reverse="true" data-llp-duration="1000" />
		<path d="M305.5,773.534L343.5,769.034C345.833,768.867 350.4,767.134 350,761.534C349.6,755.934 348.833,752.201 348.5,751.034C348.5,749.201 347.1,745.634 341.5,746.034L312,749.534C306.667,744.201 290.2,736.734 267,749.534C262,752.201 250.4,761.434 244,777.034" data-llp-delay="1000" data-llp-duration="200" data-llp-reverse="true" />
		<path d="M360.5,753.034C374.333,744.201 403.6,725.634 410,722.034C418,717.534 421.74,724.328 426,729.534C430.5,735.034 423.5,740.867 420,744.034C404.333,758.534 371.4,788.934 365,794.534C358.6,800.134 346.667,801.867 341.5,802.034L271,810.534C271,829.534 276.5,835.034 299.5,837.034C322.5,839.034 380,840.034 429,823.534C495.111,801.272 525,784.534 547.5,797.534C557.045,803.049 570.5,817.034 554.5,840.034C542.674,857.034 502.282,864.534 484.5,896.034C466.718,927.534 473.899,980.189 531,987.034C557.265,990.182 602.837,967.764 647.5,934.534C699.936,895.519 752.82,844.178 797,840.034C950.073,825.677 993.652,996.499 1147.5,913.534C1243,862.034 1139,714.725 1299.5,632.034C1562.5,496.534 1652.5,772.534 1862,664.034C1956.2,615.249 2086.5,621.034 2226.5,683.534" data-llp-delay="1200" data-llp-duration="1000" />
		<path d="M315,733.034L328.5,733.034L408.5,581.034L370.5,581.034L405,483.034L315,483.034L291.5,603.534L328.5,603.534L315,733.034Z" data-llp-delay="2200" data-llp-duration="500" />
	</g>
</svg>
