<svg class="animated lightning_squiggle" viewBox="0 0 2781 283">
	<g transform="matrix(1,0,0,1,598.369,0.375712)">
		<path d="M1036.5,66.001C995,63.501 933.5,71.501 900,169.501C858.925,289.66 783,272.001 767.5,256.002C756.5,244.647 750.018,230.106 763.5,190.501C779.5,143.501 736.5,125.501 705,143.501C677.257,159.355 605.399,223.37 500.5,190.501C350.5,143.501 265,-4.021 94,26.5C-110.5,63.001 -64,214.501 -166.5,245.501C-269,276.501 -362.5,245.001 -418,190.501C-473.5,136.001 -520,105.001 -586,120.501" data-llp-reverse="true" data-llp-duration="1000" />
		<g transform="matrix(1,0,0,1,0.226042,-2.9386)">
			<path d="M1030.5,68.761L1033.46,68.825C1033.79,68.831 1067.12,69.785 1087.88,90.538C1094.24,96.9 1099.05,103.122 1103.71,109.137C1109.74,116.933 1115.44,124.294 1123.07,129.545C1131.53,135.37 1141.56,138.084 1154.64,138.084L1192.18,138.084L1176.32,282.34L1196.52,282.34L1275.11,131.004" data-llp-delay="1000" data-llp-duration="300" />
		</g>
		<g transform="matrix(1,0,0,1,0.189385,2.62429)">
			<path d="M1286.25,107.561L1245.82,107.561L1283.65,0L1177.44,0L1157.76,106.989" data-llp-delay="1300" data-llp-duration="200" data-llp-reverse="true" />
		</g>
		<g transform="matrix(0.999848,0.0174524,-0.0174524,0.999848,7.3506,-19.7348)">
			<path d="M1280.33,107.561L1283.29,107.561C1296.2,107.561 1307.79,109.978 1318.7,114.954C1328.19,119.276 1335.91,124.954 1342.73,129.966C1359.7,142.439 1371.96,151.453 1399.59,134.077L1402.09,132.503" data-llp-delay="1500" data-llp-duration="100" />
		</g>
		<g transform="matrix(1,0,0,1,7,0)">
			<path d="M1399.5,137.5C1436.5,115.5 1482,108.5 1542,151C1615.7,203.202 1717,232.354 1782.5,225.5C1854,218.019 1881.67,157.754 1870,114.636C1859,74.003 1879,36.637 1924,42.637C1957.76,47.138 2026.5,85.136 2162.5,51.636" data-llp-delay="1600" data-llp-duration="1000" />
		</g>
	</g>
</svg>
