<svg class="animated pig_squiggle" viewBox="0 0 2145 630">
	<g transform="matrix(1,0,0,1,-1.53507e-05,-0.000214702)">
		<g transform="matrix(1,0,0,1,3,12.1865)">
			<path d="M14.09,367.447L15.822,367.447C24.693,367.342 33.432,366.423 41.856,363.431C47.157,361.568 51.986,358.891 55.87,354.745C61.643,348.604 66.268,340.338 65.81,332.112C65.5,326.544 65.171,323.691 64.721,319.792C64.62,318.915 62.831,312.639 61.483,310.02C60.968,309.018 58.757,303.595 57.707,303.832C55.836,308.576 26.215,314.277 12.516,309.343C8.946,308.058 5.64,306.273 3.042,303.439C-0.632,299.45 -1.079,294.621 2.254,290.317C7.87,283.074 15.35,279.688 24.509,280.659C33.93,281.657 41.567,286.459 48.181,292.863C51.645,296.222 54.584,300.132 57.707,303.832C58.1,304.305 58.363,304.646 59.072,304.383C68.047,301.287 79.661,292.591 83.807,284.114C82.203,287.871 73.532,286.38 71.459,286.249C61.066,285.593 52.904,280.843 46.947,272.366C45.477,270.267 44.48,267.931 44.218,265.359C43.719,260.662 45.714,257.198 49.729,254.914C53.377,252.815 57.418,252.08 61.538,251.87C65.869,251.66 70.12,252.159 74.057,254.101C82.087,258.064 85.866,264.782 86.365,273.521C86.47,275.253 86.391,276.985 86.391,278.901C86.528,278.863 85.816,282.422 83.807,284.114C81.421,286.123 81.215,285.935 83.807,284.114C87.065,281.824 90.169,277.808 90.826,277.589C91.062,277.51 91.22,276.88 91.22,276.513C91.299,273.416 91.115,270.293 91.404,267.223C93.083,249.823 98.647,233.762 108.278,219.118C121.164,199.541 138.589,185.08 159.217,174.321C164.229,171.696 169.504,169.544 174.674,167.182C175.147,166.972 175.619,166.762 176.196,166.5C175.252,164.505 174.359,162.563 173.467,160.648C169.557,152.407 167.798,143.747 168.665,134.667C170.108,119.603 176.8,107.295 188.82,98.136C218.212,75.75 260.858,90.656 269.991,126.426C272.3,135.454 271.985,144.429 269.466,153.352C269.099,154.638 268.81,155.976 268.442,157.472C270.096,157.813 271.697,158.181 273.298,158.496C287.522,161.225 301.247,165.503 314.316,171.722C315.707,172.379 316.521,172.221 317.518,171.145C322.137,166.264 327.517,162.38 333.815,159.965C342.318,156.685 350.873,156.16 359.245,160.175C361.922,161.461 364.258,163.456 366.672,165.24C368.22,166.395 368.483,167.917 367.853,169.807C364.336,180.225 360.898,190.697 357.382,201.115C357.067,202.06 357.146,202.664 357.854,203.398C363.182,209.041 368.01,215.077 372.131,221.664C372.682,222.53 373.259,222.871 374.309,222.871C389.005,222.819 403.702,222.845 418.398,222.845C421.495,222.845 422.571,223.921 422.571,227.018L422.571,302.599C422.571,305.591 421.442,306.719 418.451,306.719C406.772,306.719 395.094,306.745 383.415,306.693C382.366,306.693 381.788,306.955 381.395,308.005C372.026,332.936 355.23,351.858 333.29,366.397C330.508,368.234 329.432,370.045 329.485,373.43C329.721,387.156 329.59,400.907 329.59,414.633L329.59,415.993C329.59,416.167 329.634,422.168 329.634,422.365" data-llp-duration="1500" data-llp-reverse="true" />
		</g>
		<g transform="matrix(1,0,0,1,3,12.1865)">
			<path d="M415.931,440.666C427.714,449.563 437.398,460.165 442.647,474.258C445.56,482.078 446.531,490.135 444.248,498.297C441.387,508.479 434.564,515.171 425.143,519.423C418.949,522.231 412.362,523.622 405.617,524.121C391.341,525.144 377.353,523.569 363.706,519.187C356.568,516.904 349.955,513.544 344.496,508.296C335.521,499.662 333.316,488.141 338.329,476.279C341.793,468.064 347.462,461.53 354.128,455.809C364.887,446.571 377.274,440.22 390.449,435.286C391.262,434.971 392.076,434.683 393.099,434.315C392.601,434.053 392.286,433.843 391.945,433.685C381.237,429.014 370.084,425.97 358.536,424.185C348.433,422.611 338.276,422.296 328.068,422.374C308.438,422.479 288.807,422.532 269.177,422.584C266.343,422.584 265.188,421.43 265.188,418.622L265.188,391.801C248.025,394.058 230.967,394.136 213.672,391.774L213.672,418.254C213.672,421.456 212.544,422.584 209.316,422.584L153.548,422.584C150.268,422.584 149.192,421.535 149.192,418.307C149.192,402.298 149.192,386.29 149.218,370.281C149.218,369.257 148.929,368.628 148.037,368.077C139.062,362.434 130.69,355.952 123.237,348.394C109.302,334.222 99.145,317.846 94.317,298.426C93.162,293.729 92.585,288.9 91.771,284.123C91.745,283.914 91.066,276.064 91.014,275.801M271.988,158.228C268.503,157.598 263.865,156.707 260.327,156.289C255.276,155.692 250.252,155.472 245.095,155.295C232.655,154.875 218.431,155.739 206.175,157.969C195.406,159.926 184.738,163.208 174.674,167.182" data-llp-delay="1500" data-llp-duration="300" data-llp-reverse="true" />
		</g>
		<g transform="matrix(1,0,0,1,3,12.1865)">
			<path d="M305,245.283L333,245.336" data-llp-delay="2800" data-llp-duration="50" />
		</g>
		<g transform="matrix(0.999287,0.0377593,-0.0377593,0.999287,11.9987,1.0345)">
			<path d="M338.513,296.327C338.828,296.799 339.011,297.167 339.3,297.508C341.216,299.922 342.948,302.573 345.152,304.725C351.811,311.207 359.96,314.537 369.058,315.659C369.39,315.7 379.867,316.627 380.201,316.662" data-llp-delay="2850" data-llp-duration="50" />
		</g>
		<g transform="matrix(1,0,0,1,1.28518,9.36928)">
			<path d="M389.541,438.855C390.048,438.641 402.962,434.267 403.538,434.062C418.798,428.631 457.237,426.459 457.916,426.449C520.458,425.556 596.955,436.468 693.369,503.984C768.526,556.614 915.869,645.569 984.369,589.484C1064.37,523.984 933.369,443.984 1008.87,380.984C1116.94,290.802 1233.87,509.484 1464.37,479.984C1633.87,458.291 1736.37,307.984 1788.87,184.484C1861.02,14.761 2009.37,-19.016 2130.37,14.761" data-llp-delay="1800" data-llp-duration="1000" />
		</g>
	</g>
</svg>
