<svg class="animated planet_hand_squiggle" viewBox="0 0 3681 1072">
	<g transform="matrix(1,0,0,1,1279.02,11.0692)">
		<g transform="matrix(1.06272,0,0,1.06272,22.1379,-2.17496)">
			<path d="M225.5,812.534L232,833.034L259.5,824.034L240,764.034L212.5,773.534L219,793.034C220.833,797.701 220.774,809.995 205,811.534C184.5,813.534 166.5,802.034 118.5,789.534C70.5,777.034 21,798.534 -37.5,837.034C-97.51,876.528 -217.983,878.993 -258.5,810.534C-287.5,761.534 -267.5,686.034 -229.5,650.034C-195.921,612.583 -145.5,588.534 -92,581.034C10.498,566.665 119.444,481.751 68,387.534C23.5,306.034 25.2,242.053 30,191.034C43.5,47.534 -54.423,-22.23 -130.5,13.034C-226.5,57.534 -225,128.534 -328.5,169.034C-360.162,181.424 -464.746,184.79 -546.5,138.534C-622.5,95.534 -728.5,130.034 -861,191.034C-1013.18,261.093 -1204,188.034 -1212,161.534" data-llp-reverse="true" data-llp-duration="1000" />
		</g>
		<g transform="matrix(1.06272,0,0,1.06272,22.1379,-2.17496)">
			<path d="M305.5,773.534L343.5,769.034C345.833,768.867 350.4,767.134 350,761.534C349.6,755.934 348.833,752.201 348.5,751.034C348.5,749.201 347.1,745.634 341.5,746.034L312,749.534C306.667,744.201 290.2,736.734 267,749.534C262,752.201 250.4,761.434 244,777.034" data-llp-delay="1000" data-llp-duration="200" data-llp-reverse="true" />
		</g>
		<g transform="matrix(1.06272,0,0,1.06272,22.1379,-2.17496)">
			<path d="M360.5,753.034C374.333,744.201 403.6,725.634 410,722.034C418,717.534 421.74,724.328 426,729.534C430.5,735.034 423.5,740.867 420,744.034C404.333,758.534 371.4,788.934 365,794.534C358.6,800.134 346.667,801.867 341.5,802.034L271,810.534C271,829.534 276.5,835.034 299.5,837.034C322.5,839.034 380,840.034 429,823.534C495.111,801.272 525,784.534 547.5,797.534C557.045,803.049 570.5,817.034 554.5,840.034C542.674,857.034 502.282,864.534 484.5,896.034C466.718,927.534 473.899,980.189 531,987.034C557.265,990.182 602.837,967.764 647.5,934.534C699.936,895.519 752.82,844.178 797,840.034C950.073,825.677 993.652,996.499 1147.5,913.534C1243,862.034 1139,714.725 1299.5,632.034C1562.5,496.534 1652.5,772.534 1862,664.034C1956.2,615.249 2086.5,621.034 2226.5,683.534" data-llp-delay="1200" data-llp-duration="1000" />
		</g>
		<path d="M470.554,583.554C453.674,547.96 426.554,524.439 388.522,514.107C364.444,507.559 340.413,508.72 316.846,516.893C270.197,533.08 244.373,571.87 236.993,605.416" data-llp-delay="2200" data-llp-duration="100" />
		<path d="M238.03,601.013C237.775,601.083 235.231,613.669 235.208,613.948C234.651,619.683 233.815,625.395 233.653,631.13C233.235,644.991 235.324,658.551 239.62,671.762C240.618,674.874 241.802,677.915 242.917,681.05" data-llp-delay="2300" data-llp-duration="10" />
		<path d="M241.149,676.21C241.422,676.734 245.62,687.38 245.877,687.883C246.645,689.385 247.95,691.638 248.698,693.031C254.48,703.665 261.654,713.301 270.315,721.776C288.333,739.399 309.741,750.59 334.492,755.373C345.219,757.463 356.062,758.067 366.928,757.115C395.906,754.607 421.191,743.555 442.366,723.564C461.336,705.639 473.271,683.72 478.588,658.156C480.422,649.287 481.188,640.347 481.026,631.292C480.886,624.21 480.097,617.175 478.797,610.209C478.611,609.257 478.123,609.211 477.334,609.188C460.779,609.072 448.659,617.965 443.992,633.869C442.9,637.584 442.32,641.485 441.693,645.339C440.393,653.396 436.562,659.898 429.967,664.774C427.065,666.91 424.116,668.976 421.307,671.205C417.267,674.409 416.686,678.658 418.056,683.372C419.496,688.317 422.329,692.45 425.858,696.096C428.319,698.627 431.036,700.948 433.752,703.479" data-llp-delay="2310" data-llp-duration="190" />
		<path d="M411.787,642.623C410.557,647.894 407.422,651.841 402.686,654.348C399.272,656.159 395.697,657.622 392.167,659.155C387.199,661.291 382.462,663.752 378.445,667.467C373.592,671.971 370.272,677.497 367.764,683.558C362.238,696.862 352.974,706.591 339.786,712.465C335.932,714.183 331.891,715.205 327.666,715.251C323.417,715.298 319.446,714.392 316.335,711.165C314.57,709.354 313.734,707.101 313.154,704.71C311.807,699.045 310.855,693.356 310.971,687.505C311.087,681.12 312.666,675.06 315.058,669.162C315.847,667.188 316.544,665.168 317.496,663.288C319.748,658.83 319.585,654.348 317.774,649.844C316.033,645.548 314.176,641.299 312.481,637.004C310.855,632.848 309.973,628.506 309.601,624.048C309.137,618.22 310.855,612.972 313.804,608.073C317.914,601.27 323.301,595.558 329.314,590.473C333.935,586.549 338.904,583.043 343.617,579.212C346.38,576.983 349.515,576.38 352.904,576.217C359.917,575.892 365.303,578.818 369.459,584.297C372.571,588.407 374.707,593.028 376.843,597.671C377.586,599.273 378.375,600.875 379.026,602.524C381.162,607.888 385.086,611.417 390.38,613.46C393.77,614.76 397.229,615.852 400.619,617.175C402.477,617.895 404.334,618.777 406.006,619.845C410.719,622.864 412.763,627.391 412.948,632.894C412.971,633.312 412.948,633.753 412.948,634.171C412.902,634.311 412.437,639.837 411.787,642.623Z" data-llp-delay="2500" data-llp-duration="200" />
		<path d="M242.917,681.05C246.191,678.728 249.256,676.569 252.274,674.363C254.666,672.598 256.918,670.648 258.543,668.094C260.145,665.563 260.377,662.963 259.054,660.269C258.195,658.505 257.243,656.786 256.314,655.045C254.433,651.516 253.76,647.824 255.246,643.993C255.989,642.089 256.987,640.301 257.916,638.467C260.099,634.148 261.863,629.806 261.492,624.768C261.004,618.313 257.87,614.226 251.624,612.624C246.307,611.277 241.036,611.812 235.812,613.181" data-llp-delay="2700" data-llp-duration="100" />
		<path d="M406.795,556.212C404.775,555.724 402.894,555.19 400.967,554.842C396.602,554.053 392.283,554.54 387.942,555.167C383.507,555.794 379.072,556.607 374.614,556.793C364.56,557.234 357.014,552.59 351.534,544.417C347.193,537.916 345.776,530.671 346.566,522.963C346.612,522.429 346.682,521.895 346.751,521.361L346.751,521.337L346.775,521.105L346.937,521.128" data-llp-delay="2800" data-llp-duration="100" />
	</g>
</svg>
