<svg class="animated plug_footer" viewBox="0 0 675 455">
	<g transform="matrix(1,0,0,1,-2.48884,-2.5)">
		<g transform="matrix(1,0,0,1,-0.000256249,-1.77636e-15)">
			<path d="M229.538,109.23L199.191,9.598L214.287,5L246.474,110.671L231.378,115.269L229.538,109.23C229.538,109.23 203.666,117.836 193.402,120.181C184.979,122.105 179.943,122.761 167.952,115.269C155.646,107.58 155.267,95.524 151.625,84.499C147.904,73.238 141.766,58.46 145.629,47.704C148.512,39.675 152.384,32.629 161.955,27.995C169.876,24.159 189.963,19.018 189.963,19.018" data-llp-duration="500" />
		</g>
		<g transform="matrix(1,0,0,1,-0.000256249,-1.77636e-15)">
			<path d="M225.024,40.227L265.275,27.963L260.679,12.87L231.451,21.776" data-llp-delay="500" data-llp-duration="200" />
		</g>
		<g transform="matrix(1,0,0,1,-0.000256249,-1.77636e-15)">
			<path d="M240.652,91.557L280.915,79.291L276.308,64.199L246.474,73.292" data-llp-delay="700" data-llp-duration="200" />
		</g>
		<g transform="matrix(1,0,0,1,-0.000256249,-1.77636e-15)">
			<path d="M152.197,86.38C152.197,86.38 138.12,84.647 118.944,103.325C104.57,117.327 106.214,144.404 106.214,144.404" data-llp-delay="1000" data-llp-duration="100" />
		</g>
		<g transform="matrix(1,0,0,1,-0.000256249,-1.77636e-15)">
			<path d="M180.322,37.9L193.402,33.91" data-llp-delay="900" data-llp-duration="50" />
		</g>
		<g transform="matrix(1,0,0,1,-0.000256249,-1.77636e-15)">
			<path d="M200.244,103.31L213.325,99.331" data-llp-delay="950" data-llp-duration="50" />
		</g>
		<path d="M107.016,157.84C109.488,168.893 116.859,174.293 119.658,200.414C121.579,218.339 116.184,230.391 106.214,239.79C101.562,244.175 91.022,250.793 78.059,254.325C65.045,257.872 48.664,257.052 35.539,252.392C21.902,247.55 5.963,238.348 5,214.862C4.643,206.152 12.809,181.784 33.073,167.446C46.624,157.858 67.844,155.457 80.58,156.355C102.07,157.87 125.917,158.034 151.827,163.905C165.638,167.035 180.587,168.577 193.487,171.382C235.12,180.434 252.493,181.045 312.838,172.092C340.274,168.021 372.911,162.953 395.309,179.061C422.006,198.259 437.485,228.337 462.497,248.706C475.305,259.137 492.893,268.124 512.454,270.871C535.874,274.159 561.481,271.288 579.579,270.34C579.599,270.339 579.617,270.35 579.637,270.35C600.408,270.531 633.106,269.534 648.911,283.312C664.73,297.102 673.987,303.175 674.49,353.079C674.727,376.69 669.38,404.774 644.913,424.925C626.298,440.257 596.189,448.847 569.773,452.942C542.1,457.232 499.948,452.854 478.872,450.666" data-llp-delay="1100" />
	</g>
</svg>
