<svg class="animated plug" viewBox="0 0 2763 997">
	<g transform="matrix(1,0,0,1,-7.36432,-7.36932)">
		<g transform="matrix(1,0,0,1,1029.53,-1347.33)">
			<path d="M-1017.17,1359.7C-646.299,1360.58 -563.942,1548.23 -399.643,1608.41C-278.046,1652.96 -117.536,1578.36 -40.876,1776.86C-8.489,1860.73 96.586,1863.21 142.994,1849.89C189.402,1836.56 187.614,1802.62 173.587,1780.61C154.176,1750.15 127.045,1731.36 87.845,1760.41C44.241,1792.73 16.562,1949.12 322.429,2017.81C729.638,2109.27 882.237,1957.49 1091.02,2042.27C1299.8,2127.05 1329.51,2280.51 1529.15,2337.23C1613.81,2361.28 1683.19,2335.09 1704.6,2259.72C1727.55,2178.92 1685.56,2163.87 1691.18,2116.61C1689.77,2085.02 1708.62,2055.24 1726.28,2020.54C1743.95,1985.85 1743.02,1930.7 1661.57,1915.36C1578.28,1899.67 1544.36,1983.94 1536.54,2031.61C1533.7,2041.58 1527.15,2093.92 1489.64,2083.26C1468.96,2077.39 1442.23,2050.7 1453.33,2011.62C1464.95,1970.73 1502.6,1940.15 1547.59,1882.98C1596.38,1820.95 1566.28,1711.04 1561.86,1693.67" data-llp-delay="620" data-llp-duration="1500" data-llp-reverse="true" />
		</g>
		<g transform="matrix(1,0,0,1,1029.53,-1347.33)">
			<path d="M1595.29,1623.2L1601.01,1655.7C1603.88,1672.02 1592.98,1687.58 1576.67,1690.45L1544.17,1696.17C1527.85,1699.05 1512.29,1688.15 1509.42,1671.83L1504.82,1645.7" data-llp-delay="300" data-llp-duration="100" />
		</g>
		<g transform="matrix(1,0,0,1,1029.53,-1347.33)">
			<path d="M1586.15,1649.18L1583.9,1636.38M1522.14,1660.45L1519.88,1647.65" data-llp-delay="600" data-llp-duration="20" />
		</g>
		<g transform="matrix(0.984848,-0.173422,-0.173422,-0.984848,2527.14,292.059)">
			<path d="M105,0L0,0L0,15L105,15L105,0Z" data-llp-duration="300" />
		</g>
		<g transform="matrix(1,0,0,1,1029.53,-1347.33)">
			<path d="M1529.48,1618.54L1522.54,1579.15L1507.77,1581.75L1513.41,1613.76" data-llp-delay="400" data-llp-duration="100" />
		</g>
		<g transform="matrix(1,0,0,1,1029.53,-1347.33)">
			<path d="M1579.71,1609.7L1572.77,1570.3L1558,1572.91L1563.64,1604.91" data-llp-delay="500" data-llp-duration="100" />
		</g>
	</g>
</svg>
