<svg class="animated sun_plug" viewBox="0 0 1723 1860">
	<g transform="matrix(1,0,0,1,-3.5,-8.5)">
		<g transform="matrix(1,0,0,1,0.171661,5.82986)">
			<g transform="matrix(1,0,0,1,-198.052,-302.86)">
				<path d="M1029.67,441.24C1349.21,441.24 1608.63,690.487 1608.63,997.49C1608.63,1303.09 1351.58,1551.45 1034.06,1553.72C1032.6,1553.74 1031.13,1553.74 1029.67,1553.74C710.133,1553.74 450.71,1304.49 450.71,997.49C450.71,690.487 710.133,441.24 1029.67,441.24Z" data-llp-duration="500" />
			</g>
			<g transform="matrix(1,0,0,1,-198.052,-302.86)">
				<path d="M913.78,1567.57C1440.15,1647.33 1640.3,1319.43 1640.82,1027.97C1641.12,862.154 1576.79,708.132 1471.16,647.7C1179.86,481.05 897.77,337.29 616.03,641.83C334.29,946.37 454.1,1058.82 454.1,1058.82" data-llp-delay="500" data-llp-duration="400" data-llp-reverse="true" />
			</g>
			<g transform="matrix(1,0,0,1,-198.052,-302.86)">
				<path d="M1044.31,1657.83C783.49,1590.66 601.27,1470.4 565.05,1376.39C390.07,922.29 511.07,587.18 915.13,493.55" data-llp-delay="900" data-llp-duration="100" />
			</g>
			<g transform="matrix(1,0,0,1,-198.052,-302.86)">
				<path d="M980.77,418.78L973.02,308.03" data-llp-delay="1000" data-llp-duration="50" />
			</g>
			<g transform="matrix(1,0,0,1,-198.052,-302.86)">
				<path d="M1374.25,474.2L1444.64,333.23" data-llp-delay="1050" data-llp-duration="50" />
			</g>
			<g transform="matrix(1,0,0,1,-198.052,-302.86)">
				<path d="M1774.42,1246.78L1645.8,1183.17" data-llp-delay="1150" data-llp-duration="50" />
			</g>
			<g transform="matrix(1,0,0,1,-198.052,-302.86)">
				<path d="M1471.23,1431.43L1598.35,1551.77" data-llp-delay="1200" data-llp-duration="50" />
			</g>
			<g transform="matrix(1,0,0,1,-198.052,-302.86)">
				<path d="M1187.36,1578.32L1218.79,1686.56" data-llp-delay="1250" data-llp-duration="50" />
			</g>
			<g transform="matrix(1,0,0,1,-198.052,-302.86)">
				<path d="M716.27,1564.82L664.93,1646.71" data-llp-delay="1300" data-llp-duration="50" />
			</g>
			<g transform="matrix(1,0,0,1,-198.052,-302.86)">
				<path d="M495.91,1283.33L264.89,1379.92" data-llp-delay="1350" data-llp-duration="50" />
			</g>
			<g transform="matrix(1,0,0,1,-198.052,-302.86)">
				<path d="M385.02,1015.84L222.05,1034.2" data-llp-delay="1400" data-llp-duration="50" />
			</g>
			<g transform="matrix(1,0,0,1,-198.052,-302.86)">
				<path d="M550.5,590.03L342.09,392.74" data-llp-delay="1450" data-llp-duration="50" />
			</g>
			<g transform="matrix(1,0,0,1,-117.12,-38.9511)">
				<path d="M1655.34,1391.58C1642.44,1375.28 1608.4,1338.8 1595.3,1322.6C1579.5,1303.1 1568.2,1281.6 1564.9,1256.3C1561.4,1229.6 1567.1,1204.8 1580.9,1182.1C1608.6,1136.6 1650,1110.1 1701.1,1097.9C1723.4,1092.6 1746,1091.7 1768.3,1097.9C1806,1108.4 1828,1134.1 1836.7,1171.4C1849.4,1226.2 1827,1295.7 1773,1333.6C1742.1,1355.3 1708.2,1370.9 1673.3,1384.7C1610.2,1409.5 1545.1,1428.1 1480,1446.5C1444.5,1456.5 1408.8,1466.1 1373.4,1476.5C1335.9,1487.5 1301.4,1505.4 1268.7,1526.3C1230.5,1550.7 1193.1,1576.2 1155.2,1601C1126.1,1620.1 1096.1,1637.8 1063.4,1650.2C1041.4,1658.5 1018.8,1663.6 995.2,1663.5C976.3,1663.4 958.1,1660 940.6,1652.9C897.8,1635.3 855.2,1617.4 812.4,1599.9C785.9,1589 758.9,1579.6 730.5,1574.6C689.7,1567.4 649.9,1571.8 610.9,1584.9C572.6,1597.7 537.2,1616.4 502.6,1636.7C463.9,1659.4 424.4,1680.4 381.9,1694.9C355.4,1704 328.4,1709.8 300.2,1708.6C264.6,1707.1 235.1,1692.5 210.4,1667.3C186.3,1642.7 169.7,1613 155.3,1582.1C143.5,1556.8 132.4,1531.1 127,1503.4C116.8,1451.2 126,1402.5 153,1357C175.9,1318.4 207.1,1287.5 242.4,1260.4C293.1,1221.5 349.1,1192.1 408,1167.8C431.4,1158.2 455.4,1150.2 479.1,1141.5C480.2,1141.1 481.3,1140.7 482.1,1140.4" data-llp-delay="2500" data-llp-duration="1000" />
			</g>
			<g transform="matrix(1,0,0,1,-198.052,-303.86)">
				<path d="M1612.65,687.44L1746.53,631.47" data-llp-delay="1100" data-llp-duration="50" />
			</g>
		</g>
		<g transform="matrix(1,0,0,1,0.171661,5.82986)">
			<g transform="matrix(1,0,0,1,-0.171661,-5.82986)">
				<path d="M1306.65,1597.19L1503.21,1803.87L1461.15,1843.98L1253.38,1624.74L1295.73,1585.44L1306.65,1597.72L1313.73,1590.75C1313.73,1590.75 1370.79,1527.98 1400.66,1520.43C1412.99,1517.32 1431.96,1513.47 1448.71,1518.92C1472.52,1526.67 1481.19,1532.92 1492.96,1545.46C1510.73,1564.4 1548.21,1602.53 1563.72,1622.04C1574.54,1635.66 1577.62,1655.26 1578.35,1672.12C1579.45,1697.27 1571.72,1708.66 1561.28,1723.3C1547.91,1742.04 1498.17,1784.58 1498.17,1784.58" data-llp-delay="1450" data-llp-duration="500" />
			</g>
		</g>
		<g transform="matrix(1,0,0,1,0.171661,5.82986)">
			<g transform="matrix(1,0,0,1,-0.171661,-5.82986)">
				<path d="M1386.18,1764.87L1307.94,1837.93L1334.25,1865.8L1403.2,1799.59" data-llp-delay="1950" data-llp-duration="200" />
			</g>
		</g>
		<g transform="matrix(1,0,0,1,0.171661,5.82986)">
			<g transform="matrix(1,0,0,1,-0.171661,-5.82986)">
				<path d="M1290.53,1663.94L1212.94,1737.69L1238.8,1764.87L1303.55,1700.27" data-llp-delay="2150" data-llp-duration="200" />
			</g>
		</g>
		<g transform="matrix(1,0,0,1,0.171661,5.82986)">
			<g transform="matrix(1,0,0,1,-0.171661,-5.82986)">
				<path d="M1526.61,1580.9C1526.61,1580.9 1571.21,1543.32 1580.43,1485.57C1588.98,1432.09 1558.69,1386.3 1558.69,1386.3" data-llp-delay="2400" data-llp-duration="100" />
			</g>
		</g>
		<g transform="matrix(1,0,0,1,0.171661,5.82986)">
			<g transform="matrix(1,0,0,1,-0.171661,-5.82986)">
				<path d="M1361,1621.1L1388.03,1595.24" data-llp-delay="2350" data-llp-duration="25" />
			</g>
		</g>
		<g transform="matrix(1,0,0,1,0.171661,5.82986)">
			<g transform="matrix(1,0,0,1,-0.171661,-5.82986)">
				<path d="M1471.91,1735.86L1496.75,1710.32" data-llp-delay="2375" data-llp-duration="25" />
			</g>
		</g>
	</g>
</svg>
