<svg viewBox="0 0 2461 932" version="1.1">
	<g transform="matrix(1,0,0,1,529.742,-8.85784)">
		<path d="M-21.948,909.112C202.619,925.773 318.281,826.899 536.459,810.603C714.462,797.308 1016.25,883.475 1159.83,920.648C1303.41,957.821 1709.43,967.258 1862.34,714.264C1983.43,513.912 1918.32,324.454 1866.45,222.015C1829.04,158.134 1786.84,101.04 1716.86,78.845C1600.38,41.898 1528.19,71.415 1405.17,109.616C1300.92,141.987 1188.51,149.424 1084.73,126.287C900.077,95.415 682.096,10.108 535.752,8.884C316.934,7.055 221.574,100.605 160.57,115.659C18.549,170.061 -37.857,111.145 -180.966,96.354C-402.095,73.425 -483.018,193.994 -510.94,250.923C-538.862,307.851 -545.656,442.066 -459.993,522.868C-403.966,575.644 -354.744,571.38 -312.584,632.512C-274.359,687.897 -254.213,723.701 -226.987,767.785C-199.76,811.87 -118.857,901.922 -21.948,909.112Z" />
	</g>
</svg>
