<svg viewBox="0 0 1025 913" width="100%" height="100%" preserveAspectRatio="none">
	<path d="M106.047 581.061C74.4486 499.265 61.2043 427.949 86.9185 286.374C106.513 178.658 152.439 137.752 216.863 85.817C263.201 55.2275 338.468 39.1863 398.151 48.6821C491.754 67.6875 506.283 80.6895 552.332 105.234C582.148 121.08 606.547 135.453 628.66 144.966C709.497 179.7 756.073 187 813.098 208.795C897.169 240.927 948.559 323.456 958.506 425.045C965.807 499.612 960.427 641.127 831.492 740.325C754.331 798.003 638.644 859.405 416.664 824.088L413.756 823.331C340.959 804.373 270.86 786.119 204.544 726.789C177.668 702.801 132.087 648.306 106.047 581.061Z" fill="#00BBD4" />
</svg>
