<svg viewBox="0 0 2894 1951" version="1.1">
	<g transform="matrix(1,0,0,1,139.369,-49.2942)">
		<g transform="matrix(0.634638,0,0,0.83871,815.404,1017.8)">
			<g transform="matrix(2.16315,-2.96877,3.92339,1.63682,-1227.55,616.499)">
				<path class="blob" d="M69.228,464.152C35.531,403.207 17.408,348.525 22.349,234.354C26.132,147.485 57.848,110.34 102.929,62.518C136.084,33.445 193.573,12.694 241.558,13.719C317.258,18.563 330.094,27.224 368.977,41.563C394.149,50.81 414.899,59.484 433.325,64.58C500.68,83.178 538.115,83.891 585.337,94.88C654.956,111.082 704.304,170.466 723.103,249.323C736.902,307.206 747.954,419.132 657.22,511.109C602.739,564.825 518.346,625.632 339.874,621.82L337.505,621.538C278.179,614.485 221.053,607.693 162.467,568.174C138.729,552.203 96.98,514.249 69.228,464.152Z" />
			</g>
		</g>
	</g>
</svg>
