<svg viewBox="0 0 2894 1951" version="1.1">
	<g transform="matrix(1,0,0,1,139.369,-49.2942)">
		<g transform="matrix(0.634638,0,0,0.83871,815.404,1017.8)">
			<g transform="matrix(2.16315,-2.96877,3.92339,1.63682,-1227.55,616.499)">
				<path class="blob" d="M69.228,464.152C35.531,403.207 17.408,348.525 22.349,234.354C26.132,147.485 57.848,110.34 102.929,62.518C136.084,33.445 193.573,12.694 241.558,13.719C317.258,18.563 330.094,27.224 368.977,41.563C394.149,50.81 414.899,59.484 433.325,64.58C500.68,83.178 538.115,83.891 585.337,94.88C654.956,111.082 704.304,170.466 723.103,249.323C736.902,307.206 747.954,419.132 657.22,511.109C602.739,564.825 518.346,625.632 339.874,621.82L337.505,621.538C278.179,614.485 221.053,607.693 162.467,568.174C138.729,552.203 96.98,514.249 69.228,464.152Z" />
			</g>
		</g>
		<g transform="matrix(0.634638,0,0,0.83871,815.404,1017.8)">
			<g class="lightbulb" transform="matrix(1.5757,0,0,1.19231,-361.473,-985.8)">
				<path d="M867.5,294.5L834.5,294.5C820.5,294 802,293 775.5,282C751.305,271.957 687.291,223.655 656.5,201.5C615.5,172 442.5,88 342,294.5C283.457,414.79 179.478,346.724 117,262.5C63,189.705 26.374,128.518 -64,111.5C-141.28,96.947 -303,189.5 -329,413.5C-335.616,470.5 -305.5,601 -137,698.5C-46.304,750.98 67,832 63,944C59,1056 -65,1100 -137,1116C-209,1132 -597,1154 -713,1360" />
				<path d="M806,253L878.5,253" />
				<path d="M806,274L878.5,274" />
				<path d="M842,0L842,37" />
				<path d="M717,125L754,125" />
				<path d="M930,125L967,125" />
				<path d="M734,62L765.991,80.589" />
				<path d="M949.991,62L918,80.589" />
				<path d="M734,187.589L765.991,169" />
				<path d="M949.991,187.589L918,169" />
				<path d="M780,17L798.452,49.071" />
				<path d="M904.452,17L886,49.071" />
				<path d="M883,215.5C885.055,195 894.5,180 898.5,173C902.5,166 914.519,150.5 913.5,124C912.267,91.957 888.424,72.617 883,69C874,63 844.5,47 811.5,63C787.782,74.5 774.123,94.442 770.5,119C766,149.5 782.854,167.792 789.5,179.5C800,198 801.5,216 801.5,232L890.944,232C927.744,232 973.278,246.667 991.444,254C1044,273.5 1114,278 1291.5,215.5C1469,153 1405.5,360.5 1362.5,329.5C1319.5,298.5 1371.5,247 1442.5,278C1513.5,309 1434.15,529.542 1610,484.5C1752.5,448 1773.5,379.5 1817.5,326.5C1875.57,256.547 1983,252.5 2156,357" />
			</g>
		</g>
	</g>
</svg>
