<?xml version="1.0" encoding="UTF-8" standalone="no"?>
<!DOCTYPE svg PUBLIC "-//W3C//DTD SVG 1.1//EN" "http://www.w3.org/Graphics/SVG/1.1/DTD/svg11.dtd">
<svg width="100%" height="100%" viewBox="0 0 732 629" version="1.1" xmlns="http://www.w3.org/2000/svg" xmlns:xlink="http://www.w3.org/1999/xlink" xml:space="preserve" xmlns:serif="http://www.serif.com/" style="fill-rule:evenodd;clip-rule:evenodd;stroke-linejoin:round;stroke-miterlimit:2;">
    <g transform="matrix(1,0,0,1,0.172051,0.0718633)">
        <path d="M0.734,0.041C0.816,0.098 0.875,0.159 0.948,0.32C1,0.443 0.991,0.519 0.97,0.621C0.951,0.687 0.896,0.761 0.839,0.798C0.745,0.852 0.724,0.85 0.667,0.861C0.631,0.868 0.6,0.873 0.575,0.88C0.482,0.908 0.436,0.937 0.372,0.96C0.278,0.993 0.178,0.95 0.102,0.856C0.045,0.788 -0.045,0.642 0,0.444C0.028,0.326 0.087,0.176 0.302,0.039L0.305,0.037C0.381,0 0.454,-0.036 0.551,-0.028C0.59,-0.025 0.666,-0.006 0.734,0.041" style="fill-rule:nonzero;"/>
    </g>
    <g transform="matrix(1,0,0,1,0.158527,0.041851)">
        <path d="M0.073,0.742C0.025,0.642 0,0.552 0.007,0.364C0.012,0.222 0.057,0.161 0.12,0.082C0.167,0.034 0.248,0 0.315,0.002C0.422,0.01 0.44,0.024 0.495,0.047C0.53,0.063 0.559,0.077 0.585,0.085C0.68,0.116 0.733,0.117 0.799,0.135C0.897,0.162 0.966,0.259 0.993,0.389C1,0.484 1,0.668 0.9,0.819C0.823,0.908 0.705,1 0.454,1L0.45,1C0.367,0.989 0.287,0.978 0.204,0.913C0.171,0.887 0.112,0.825 0.073,0.742" style="fill-rule:nonzero;"/>
    </g>
</svg>
