<svg viewBox="0 0 5000 631">
    <g transform="matrix(1,0,0,1,1660,-0.182291)">
        <path d="M-1527.91,630.384L3263.65,630.384C3305.82,630.384 3340,596.2 3340,554.031C3340,498.231 3280.82,461.654 3225.17,465.807C3065.93,477.692 2954.96,349.844 2832,301.384C2662,234.384 2548.7,300.644 2371.5,411.884C2126,566 1837,475.922 1641,311.5C1445,147.078 1184.5,146.5 1006.5,181.5C778.113,226.408 666,271.998 524,289C397.525,304.143 137.793,303.236 -96.5,121.5C-335,-63.499 -691.5,-18.501 -866.5,133C-1045.49,287.955 -1138,358.382 -1315.5,358.382C-1357.18,358.382 -1398.55,353.086 -1437.63,344.761C-1539.32,323.095 -1660,394.316 -1660,498.293C-1660,571.245 -1600.86,630.384 -1527.91,630.384Z" style="fill-rule:nonzero;"/>
    </g>
</svg>
