<?xml version="1.0" encoding="UTF-8" standalone="no"?>
<!DOCTYPE svg PUBLIC "-//W3C//DTD SVG 1.1//EN" "http://www.w3.org/Graphics/SVG/1.1/DTD/svg11.dtd">
<svg viewBox="0 0 119 80" version="1.1" xmlns="http://www.w3.org/2000/svg" xmlns:xlink="http://www.w3.org/1999/xlink" xml:space="preserve" xmlns:serif="http://www.serif.com/" style="fill-rule:evenodd;
	clip-rule:evenodd;
	stroke-linejoin:round;
	stroke-miterlimit:2;">
	<g transform="matrix(1,0,0,1,-7338.36,-196.725)">
		<g transform="matrix(2,0,0,2,0,0)">
			<path d="M3726.08,98.362L3671.68,98.362C3670.3,98.362 3669.18,99.481 3669.18,100.861C3669.18,102.242 3670.3,103.361 3671.68,103.361L3726.08,103.361C3727.46,103.361 3728.58,102.242 3728.58,100.861C3728.58,99.481 3727.46,98.362 3726.08,98.362Z" />
		</g>
		<g transform="matrix(2,0,0,2,0,0)">
			<path d="M3726.08,115.823L3671.68,115.823C3670.3,115.823 3669.18,116.943 3669.18,118.323C3669.18,119.704 3670.3,120.823 3671.68,120.823L3726.08,120.823C3727.46,120.823 3728.58,119.704 3728.58,118.323C3728.58,116.943 3727.46,115.823 3726.08,115.823Z" />
		</g>
		<g transform="matrix(2,0,0,2,0,0)">
			<path d="M3726.08,133.285L3671.68,133.285C3670.3,133.285 3669.18,134.404 3669.18,135.785C3669.18,137.166 3670.3,138.285 3671.68,138.285L3726.08,138.285C3727.46,138.285 3728.58,137.166 3728.58,135.785C3728.58,134.404 3727.46,133.285 3726.08,133.285Z" />
		</g>
	</g>
</svg>
