<svg viewBox="0 0 5000 198" overflow="visible">
	<g transform="matrix(1,0,0,0.182466,0,0)">
		<g>
			<g class="default" transform="matrix(1,0,0,5.48047,1660,0)">
				<path d="M3243.85,0L-1583.65,0C-1625.82,0 -1660,34.184 -1660,76.353C-1660,132.153 -1601.3,168.757 -1546.12,160.459C-1387.57,136.619 -1279.32,233.014 -1157,283.5C-976.5,358 -811.924,345.025 -622,283.5C-302.5,180 15,258 149.5,267.5C284,277 389.5,234.5 550.5,223.5C772.5,208.332 977.5,279 1119.5,305C1245.7,328.108 1385,343.595 1481,332C1762.5,298 1994,185.5 2118.5,195C2249.29,204.98 2387.5,224.5 2584.5,293C2702,339.5 2881.5,410.5 3074,369.5C3086.16,366.909 3097.9,364.078 3109.23,361.116C3193.58,339.05 3340,183.338 3340,96.148C3340,43.047 3296.95,0 3243.85,0Z" style="fill-rule:nonzero;" />
			</g>
			<g class="home" transform="matrix(1,0,0,5.48047,1622.86,5.37601)">
				<path d="M27.5,546C-2.1,467.6 -90.333,412.333 -131.5,402.5C-221,381.121 -349.7,338.2 -364.5,155C-383,-74 -235.5,-187 -160,-218.5C-84.5,-250 56,-245.5 199.5,-173C343,-100.5 499.5,-203 563,-231.5C626.5,-260 742.5,-374 1030.5,-285.5C1229.24,-224.43 1339.25,-331.789 1378.5,-360.5C1432.5,-400 1522,-443 1638.5,-345C1755,-247 1945,-369 2067.5,-218.5C2190,-68 2073,142.5 1985,175C1897,207.5 1787.5,265.5 1779,413.5C1770.5,561.5 1667.88,603.795 1610,625.5C1546,649.5 1469.5,684.5 1432.5,780C1395.5,875.5 1319,1007.5 1184,1058.5C1049,1109.5 902.5,1054.5 838.5,1012C777.124,971.242 722,911 620,878.5C518,846 375.5,889.5 213.5,830C51.5,770.5 64.5,644 27.5,546Z" style="fill-rule:nonzero;" />
			</g>
		</g>
	</g>
</svg>
