<svg viewBox="0 0 5000 193" overflow="visible">
	<g>
		<g transform="matrix(1,0,0,1,1659.38,0.980334)">
			<path class="default" d="M-18.159,5.455C-23.439,-24.811 -40.69,-67.738 -74.484,-105.65C-108.279,-143.561 -140.536,-190.642 -132.855,-273.074C-125.153,-355.738 -66.804,-452.787 43.281,-468.659C231.987,-495.866 346.913,-410.29 481.575,-402.61C616.238,-394.93 735.54,-475.315 938.302,-501.427C1141.06,-527.539 1255.42,-452.275 1386.5,-402.61C1517.58,-352.946 1553.5,-444 1666.5,-444C1799.84,-444 1854,-348 1838.5,-256C1828.5,-196.653 1782.5,-184.5 1749.5,-105.65C1718.91,-32.546 1774,59.5 1719.5,188.5C1656.26,338.186 1483.62,401.228 1327.5,405C1058.5,411.5 922.5,314.5 729,257.5C571.66,211.152 432,233 332.062,246.095C246.623,257.291 169.238,279.888 101.651,268.112C7.823,251.763 -10.184,185.795 -18.159,161.615C-34.035,113.487 -10.479,49.487 -18.159,5.455Z" />
		</g>
		<g transform="matrix(1,0,0,1,1659.38,2.09144)">
			<path class="video" d="M71.5,249C-3,146.5 -111,115.5 -195,79.5C-407,-27.5 -380,-317.5 -292,-426.5C-188.795,-554.333 -48.533,-561.882 63.001,-532C223.5,-489 341.324,-501.403 472.5,-543.5C647,-599.5 807.5,-517.5 913.5,-480C1019.5,-442.5 1112,-504 1288.5,-501.5C1465,-499 1586.5,-426.5 1634,-373C1697.42,-301.574 1781.5,-113.5 1687.5,79.5C1593.5,272.5 1422.5,285 1324,269C1223.38,252.655 1109.94,199.522 959,370C777.5,575 567.843,597.438 419.5,546C258,490 135.237,336.691 71.5,249Z" />
		</g>
		<g transform="matrix(1,0,0,1,1652.72,0.980334)">
			<path class="graphic" d="M27.5,546C-2.1,467.6 -90.333,412.333 -131.5,402.5C-221,381.121 -349.7,338.2 -364.5,155C-383,-74 -235.5,-187 -160,-218.5C-84.5,-250 56,-245.5 199.5,-173C343,-100.5 499.5,-203 563,-231.5C626.5,-260 742.5,-374 1030.5,-285.5C1229.24,-224.43 1339.25,-331.789 1378.5,-360.5C1432.5,-400 1522,-443 1638.5,-345C1755,-247 1945,-369 2067.5,-218.5C2190,-68 2073,142.5 1985,175C1897,207.5 1787.5,265.5 1779,413.5C1770.5,561.5 1667.88,603.795 1610,625.5C1546,649.5 1469.5,684.5 1432.5,780C1395.5,875.5 1319,1007.5 1184,1058.5C1049,1109.5 902.5,1054.5 838.5,1012C777.124,971.242 722,911 620,878.5C518,846 375.5,889.5 213.5,830C51.5,770.5 64.5,644 27.5,546Z" />
		</g>
		<g transform="matrix(1,0,0,1,1660,2.09144)">
			<path class="image" d="M3243.85,0L-1583.65,0C-1625.82,0 -1660,34.184 -1660,76.353C-1660,132.153 -1601.3,168.757 -1546.12,160.459C-1387.57,136.619 -1279.32,233.014 -1157,283.5C-976.5,358 -811.924,345.025 -622,283.5C-302.5,180 15,258 149.5,267.5C284,277 389.5,234.5 550.5,223.5C772.5,208.332 977.5,279 1119.5,305C1245.7,328.108 1385,343.595 1481,332C1762.5,298 1994,185.5 2118.5,195C2249.29,204.98 2387.5,224.5 2584.5,293C2702,339.5 2881.5,410.5 3074,369.5C3086.16,366.909 3097.9,364.078 3109.23,361.116C3193.58,339.05 3340,183.338 3340,96.148C3340,43.047 3296.95,0 3243.85,0Z" />
		</g>
		<g transform="matrix(1,0,0,1,1658.27,3.20256)">
			<path class="image_blob" d="M114.025,621.554C34.388,556.811 -72.292,569.731 -111.684,582.154C-148.948,589.459 -237.847,600.789 -285.758,524.12C-333.668,447.45 -296.126,379.446 -273.514,329.251C-244.57,265 -254.57,192.417 -319.295,135.98C-356.747,103.324 -426.827,3.406 -414.583,-87.64C-394.43,-237.499 -273.514,-330.427 -111.684,-293.157C40.06,-258.209 113.191,-377.548 168.323,-421.472C276.93,-508 427.57,-537.541 676.17,-409.226C989.891,-247.299 1281.43,-421.472 1378.85,-448.626C1548.82,-496.001 1814.3,-477.377 1831.33,-201.579C1840.81,-48.24 1735.52,72.089 1642.36,192.417C1549.2,312.746 1606.93,427.713 1622.5,490.5C1655.51,623.607 1528.48,737.808 1370,720C1217.82,702.901 1178,762 1102.5,836.5C1039.85,898.319 946,974 770.43,990.5C556.105,1010.64 420,943 346.655,880.846C282.182,826.21 213.571,702.483 114.025,621.554Z" />
		</g>
	</g>
</svg>
