<svg viewBox="0 0 458 278" version="1.1" id="plico" class="logo">
	<g transform="matrix(1,0,0,1,-1522.73,-1100.1)">
		<g transform="matrix(4.16667,0,0,4.16667,0,0)">
			<g transform="matrix(1,0,0,1,417.305,264.024)">
				<path class="cls-1" d="M0,6.749C1.105,6.749 2,5.853 2,4.749L2,2C2,0.895 1.105,0 0,0C-1.104,0 -2,0.895 -2,2L-2,4.749C-2,5.853 -1.104,6.749 0,6.749" />
			</g>
		</g>
		<g transform="matrix(4.16667,0,0,4.16667,0,0)">
			<g transform="matrix(1,0,0,1,471.196,275.212)">
				<path d="M0,22.629C0,26.795 -3.002,29.817 -7.138,29.817C-11.273,29.817 -14.275,26.795 -14.275,22.629L-14.275,10.212C-14.275,6.046 -11.273,3.023 -7.138,3.023C-3.002,3.023 0,6.046 0,10.212L0,22.629ZM-73.915,6.292L-73.915,1.023L-73.916,0.728C-73.924,-0.809 -73.943,-4.408 -72.214,-6.146C-71.517,-6.847 -70.558,-7.188 -69.283,-7.188C-68.14,-7.188 -67.285,-6.889 -66.671,-6.274C-65.089,-4.69 -65.093,-1.168 -65.095,0.524L-65.096,0.725C-65.096,3.881 -65.101,9.999 -73.912,16.228L-73.912,6.319C-73.912,6.31 -73.915,6.301 -73.915,6.292M-7.138,-0.977C-13.487,-0.977 -18.275,3.833 -18.275,10.212L-18.275,21.495C-18.275,26.084 -22.916,29.817 -28.619,29.817C-34.322,29.817 -38.963,26.084 -38.963,21.495L-38.963,9.749C-38.963,5.852 -36.154,3.023 -32.285,3.023C-28.416,3.023 -25.607,5.852 -25.607,9.749L-25.607,12.232C-25.607,13.337 -24.712,14.232 -23.607,14.232C-22.503,14.232 -21.607,13.337 -21.607,12.232L-21.607,9.749C-21.607,3.634 -26.197,-0.977 -32.285,-0.977C-38.372,-0.977 -42.963,3.634 -42.963,9.749L-42.963,26.412C-42.963,28.257 -45.007,29.817 -47.427,29.817C-49.847,29.817 -51.891,28.257 -51.891,26.412L-51.891,22.624C-51.891,22.619 -51.89,22.614 -51.89,22.609C-51.89,22.606 -51.891,22.604 -51.891,22.601L-51.891,1.023C-51.891,-0.082 -52.786,-0.977 -53.891,-0.977C-54.996,-0.977 -55.891,-0.082 -55.891,1.023L-55.891,22.623C-55.9,26.59 -59.938,29.817 -64.901,29.817C-69.87,29.817 -73.912,26.584 -73.912,22.609L-73.912,21.014C-62.63,14.108 -61.096,6.608 -61.096,0.725L-61.095,0.528C-61.093,-1.702 -61.087,-6.343 -63.841,-9.1C-65.224,-10.486 -67.055,-11.188 -69.283,-11.188C-71.644,-11.188 -73.584,-10.441 -75.05,-8.967C-77.951,-6.05 -77.926,-1.286 -77.916,0.749L-77.915,15.078C-77.915,15.088 -77.912,15.097 -77.912,15.106L-77.912,18.708C-78.127,18.826 -78.336,18.944 -78.559,19.063C-79.664,19.649 -80.81,20.049 -81.959,20.316C-84.231,20.848 -86.743,20.899 -89.449,20.462L-89.449,20.46C-92.707,19.937 -95.055,18.899 -95.1,18.879C-95.964,18.484 -96.987,18.753 -97.546,19.522C-97.738,19.785 -99.412,22.205 -99.156,25.99C-98.995,28.355 -98.067,30.364 -96.473,31.797C-94.999,33.123 -93.095,33.816 -91.118,33.749C-89.042,33.678 -87.136,32.778 -85.749,31.214C-84.64,29.965 -83.921,28.351 -83.623,26.478C-84.708,26.67 -86.125,26.767 -87.704,26.496C-88.291,28.791 -89.864,29.704 -91.253,29.751C-93.003,29.818 -94.971,28.574 -95.165,25.719C-95.233,24.713 -95.091,23.871 -94.902,23.231C-93.673,23.647 -91.911,24.146 -89.842,24.461L-89.842,24.455C-88.497,24.66 -87.186,24.763 -85.913,24.763C-84.46,24.763 -83.059,24.628 -81.712,24.361L-81.712,24.364C-81.696,24.361 -81.681,24.356 -81.666,24.353C-81.601,24.34 -81.538,24.322 -81.474,24.309C-81.104,24.231 -80.734,24.145 -80.363,24.044C-80.344,24.039 -80.323,24.036 -80.304,24.03C-80.287,24.025 -80.272,24.016 -80.255,24.011C-79.461,23.789 -78.667,23.514 -77.879,23.17C-77.536,29.089 -71.855,33.817 -64.901,33.817C-60.906,33.817 -57.33,32.255 -54.941,29.806C-53.531,32.185 -50.695,33.817 -47.427,33.817C-43.952,33.817 -40.964,31.975 -39.661,29.349C-37.028,32.077 -33.056,33.817 -28.619,33.817C-23.693,33.817 -19.341,31.671 -16.757,28.413C-14.86,31.696 -11.348,33.817 -7.138,33.817C-0.788,33.817 4,29.007 4,22.629L4,10.212C4,3.833 -0.788,-0.977 -7.138,-0.977" class="cls-1" />
			</g>
		</g>
		<g transform="matrix(4.16667,0,0,4.16667,0,0)">
			<g transform="matrix(1,0,0,1,383.73,310.435)">
				<path d="M0,-25.012L0,-16.308C1.052,-16.131 2.495,-16.038 4,-16.399L4,-25.012C4,-31.39 -0.788,-36.2 -7.138,-36.2C-13.487,-36.2 -18.276,-31.39 -18.276,-25.012L-18.276,9.188C-18.276,10.293 -17.38,11.188 -16.276,11.188C-15.171,11.188 -14.276,10.293 -14.276,9.188L-14.276,-25.012C-14.276,-29.178 -11.274,-32.2 -7.138,-32.2C-3.002,-32.2 0,-29.178 0,-25.012" class="cls-1" />
			</g>
		</g>
		<g transform="matrix(4.16667,0,0,4.16667,0,0)">
			<g transform="matrix(1,0,0,1,392.008,316.752)">
				<path d="M0,13.736L0,0L7.827,0L7.471,2.252L2.807,2.252L2.807,5.435L6.7,5.435L6.7,7.687L2.807,7.687L2.807,11.364L8.005,11.364L8.005,13.736L0,13.736Z" class="cls-2" />
			</g>
		</g>
		<g transform="matrix(4.16667,0,0,4.16667,0,0)">
			<g transform="matrix(1,0,0,1,409.147,316.752)">
				<path d="M0,13.736L-2.352,8.478C-3.123,6.758 -3.954,4.822 -4.21,3.971C-4.111,5.098 -4.092,6.719 -4.072,7.866L-3.993,13.736L-6.661,13.736L-6.661,0L-3.598,0L-0.969,5.494C-0.277,6.957 0.257,8.399 0.533,9.387C0.435,8.32 0.335,6.561 0.316,5.612L0.257,0L2.885,0L2.885,13.736L0,13.736Z" class="cls-2" />
			</g>
		</g>
		<g transform="matrix(4.16667,0,0,4.16667,0,0)">
			<g transform="matrix(1,0,0,1,415.494,316.752)">
				<path d="M0,13.736L0,0L7.828,0L7.472,2.252L2.807,2.252L2.807,5.435L6.701,5.435L6.701,7.687L2.807,7.687L2.807,11.364L8.005,11.364L8.005,13.736L0,13.736Z" class="cls-2" />
			</g>
		</g>
		<g transform="matrix(4.16667,0,0,4.16667,0,0)">
			<g transform="matrix(1,0,0,1,431.229,328.077)">
				<path d="M0,-8.914C-0.316,-9.033 -0.891,-9.111 -1.562,-9.111L-2.551,-9.111L-2.551,-5.396L-1.621,-5.396C-0.435,-5.396 0.079,-5.516 0.454,-5.851C0.79,-6.167 0.987,-6.661 0.987,-7.234C0.987,-8.084 0.652,-8.678 0,-8.914M1.442,2.411C0.909,1.502 0.691,1.126 0.157,0.157C-1.206,-2.312 -1.621,-2.985 -2.115,-3.202C-2.254,-3.262 -2.372,-3.302 -2.551,-3.321L-2.551,2.411L-5.259,2.411L-5.259,-11.325L-0.139,-11.325C2.293,-11.325 3.894,-9.705 3.894,-7.294C3.894,-5.238 2.53,-3.538 0.83,-3.499C1.106,-3.281 1.226,-3.162 1.403,-2.926C2.114,-2.036 4.21,1.541 4.704,2.411L1.442,2.411Z" class="cls-2" />
			</g>
		</g>
		<g transform="matrix(4.16667,0,0,4.16667,0,0)">
			<g transform="matrix(1,0,0,1,443.764,316.534)">
				<path d="M0,14.112C-2.056,14.112 -3.578,13.44 -4.685,12.016C-5.693,10.732 -6.147,9.269 -6.147,7.214C-6.147,4.308 -5.199,2.253 -3.282,0.967C-2.273,0.296 -1.245,0 0.06,0C1.719,0 3.222,0.534 4.427,1.581L2.965,3.299C2.075,2.569 1.146,2.232 0.099,2.232C-0.712,2.232 -1.403,2.469 -1.877,2.924C-2.807,3.814 -3.044,5.297 -3.044,7.352C-3.044,9.308 -2.709,10.574 -2.017,11.265C-1.503,11.759 -0.751,12.036 0.138,12.036C0.751,12.036 1.245,11.938 1.699,11.7L1.699,8.578L-0.396,8.578L-0.751,6.324L4.565,6.324L4.565,12.886C3.162,13.716 1.621,14.112 0,14.112" class="cls-2" />
			</g>
		</g>
		<g transform="matrix(4.16667,0,0,4.16667,0,0)">
			<g transform="matrix(1,0,0,1,456.475,322.404)">
				<path d="M0,2.43L0,8.083L-2.886,8.083L-2.886,2.43L-7.154,-5.653L-3.834,-5.653L-2.075,-1.898C-1.719,-1.147 -1.541,-0.653 -1.383,-0.139C-1.226,-0.534 -0.948,-1.207 -0.651,-1.858L1.127,-5.653L4.388,-5.653L0,2.43Z" class="cls-2" />
			</g>
		</g>
	</g>
</svg>
