<svg viewBox="0 0 19 16" fill="none" xmlns="http://www.w3.org/2000/svg">
	<path d="M10.6083 10.9007C10.2829 11.1235 9.89398 11.2346 9.49999 11.2173C9.106 11.2346 8.71706 11.1235 8.39166 10.9007L0 6.38818V13.4964C0 14.1263 0.250222 14.7304 0.695621 15.1757C1.14102 15.6211 1.74511 15.8714 2.375 15.8714H16.625C17.2549 15.8714 17.859 15.6211 18.3044 15.1757C18.7498 14.7304 19 14.1263 19 13.4964V6.38818L10.6083 10.9007Z" fill="currentColor" />
	<path d="M16.625 0.134277H2.37501C1.74512 0.134277 1.14103 0.3845 0.695632 0.829898C0.250234 1.2753 1.16726e-05 1.87939 1.16726e-05 2.50927V3.30094C-0.000744776 3.4437 0.0352771 3.58424 0.104607 3.70903C0.173936 3.83383 0.274237 3.93866 0.395845 4.01344L9.10417 8.76343C9.22572 8.82743 9.36318 8.85492 9.5 8.8426C9.63682 8.85492 9.77428 8.82743 9.89583 8.76343L18.6042 4.01344C18.7258 3.93866 18.8261 3.83383 18.8954 3.70903C18.9647 3.58424 19.0007 3.4437 19 3.30094V2.50927C19 1.87939 18.7498 1.2753 18.3044 0.829898C17.859 0.3845 17.2549 0.134277 16.625 0.134277Z" fill="currentColor" />
</svg>
