<svg viewBox="0 0 19 20" fill="none" xmlns="http://www.w3.org/2000/svg">
	<path d="M15.6361 13.964L12.4097 12.5307C12.0745 12.3807 11.699 12.346 11.342 12.432C10.9849 12.5179 10.6664 12.7196 10.4361 13.0056L9.50628 14.1682C7.98189 13.19 6.68425 11.8972 5.70035 10.3765L6.86291 9.44672C7.14869 9.21648 7.35025 8.89815 7.43617 8.54136C7.52209 8.18457 7.48754 7.80939 7.33791 7.47429L5.91529 4.23955C5.75543 3.87935 5.47282 3.58766 5.11786 3.41649C4.7629 3.24532 4.35868 3.2058 3.9773 3.30499L1.24605 4.01748C0.849812 4.12001 0.505316 4.3651 0.278536 4.70582C0.0517556 5.04654 -0.0413696 5.45894 0.0169937 5.86404C0.525771 9.39658 2.165 12.6693 4.6893 15.1923C7.2136 17.7153 10.4872 19.3529 14.02 19.8599C14.4248 19.9172 14.8366 19.8233 15.1766 19.5961C15.5166 19.3689 15.761 19.0244 15.863 18.6284L16.5755 15.8972C16.6745 15.5159 16.6344 15.1118 16.4622 14.7574C16.2901 14.403 15.9971 14.1217 15.6361 13.964Z" fill="currentColor" />
	<path d="M19.0005 10.3764H16.6255C16.6236 8.48736 15.8723 6.67619 14.5365 5.3404C13.2007 4.00462 11.3896 3.25335 9.50049 3.25146V0.876465C12.0192 0.879294 14.4339 1.88109 16.2149 3.66207C17.9958 5.44305 18.9976 7.85776 19.0005 10.3764Z" fill="currentColor" />
	<path d="M14.2505 10.3765H11.8755C11.8755 9.74656 11.6253 9.14248 11.1799 8.69708C10.7345 8.25168 10.1304 8.00146 9.50049 8.00146V5.62646C10.7603 5.62646 11.9684 6.12691 12.8592 7.0177C13.75 7.9085 14.2505 9.11668 14.2505 10.3765Z" fill="currentColor" />
</svg>
