<svg viewBox="0 0 84 83" fill="none">
	<circle opacity="0.8" cx="41.9996" cy="41.5" r="41.5" fill="white" />
	<path d="M41.9996 0C19.1151 0 0.499634 18.6173 0.499634 41.5C0.499634 64.3827 19.1151 83 41.9996 83C64.8842 83 83.4996 64.3827 83.4996 41.5C83.4996 18.6173 64.8842 0 41.9996 0ZM57.4358 43.0012L35.7837 57.436C35.4823 57.6363 35.1323 57.7391 34.7822 57.7391C34.4899 57.7391 34.1976 57.6688 33.9306 57.5262C33.3442 57.2123 32.9779 56.6006 32.9779 55.9348V27.0652C32.9779 26.3994 33.3442 25.7877 33.9306 25.4738C34.5152 25.1598 35.2297 25.1923 35.7819 25.564L57.434 39.9988C57.9374 40.3344 58.2388 40.8974 58.2388 41.5C58.2388 42.1027 57.9374 42.6656 57.4358 43.0012Z" fill="#929292" />
</svg>
