<svg viewBox="0 0 133 133">
	<path d="M66.5 0C29.8308 0 0 29.8308 0 66.5C0 103.169 29.8308 133 66.5 133C103.169 133 133 103.169 133 66.5C133 29.8308 103.169 0 66.5 0ZM63.7292 105.292C59.1407 105.292 55.4167 101.568 55.4167 96.9792C55.4167 92.3907 59.1407 88.6667 63.7292 88.6667C68.3177 88.6667 72.0417 92.3907 72.0417 96.9792C72.0417 101.568 68.3177 105.292 63.7292 105.292ZM87.6193 56.1205C85.9069 58.8636 82.654 61.9447 77.8549 65.3695C70.091 71.1107 70.3016 72.3852 70.3016 77.5833H56.6857C56.6857 73.5213 56.597 70.4013 58.7915 66.6053C60.1936 64.1725 62.7649 61.5845 66.5 58.847C70.9832 55.6439 75.339 52.5572 75.339 47.1817C75.339 42.1444 71.0275 40.3489 65.9902 40.3489C60.853 40.3489 54.9955 42.028 48.4175 45.3862L42.8149 34.1367C54.7683 27.4368 73.6321 24.4055 83.9452 32.8011C91.5151 38.969 91.5594 49.814 87.6193 56.1205Z" fill="currentColor" />
</svg>
