<svg viewBox="0 0 38 30" fill="none" xmlns="http://www.w3.org/2000/svg">
	<path d="M22.8457 2.3043C26.3309 -0.936222 32.2664 -0.0794086 35.0454 3.35179C38.3345 7.40419 38.9913 15.0847 33.2612 21.9551C30.419 25.363 26.9937 27.9468 22.9889 29.7065L21.1418 26.7317C26.8389 23.971 31.097 20.2279 31.7005 13.9524C29.13 13.9524 26.9973 14.0455 25.0978 13.3658C22.9352 12.5919 21.6216 11.1567 21.0824 9.51102C20.2272 6.93427 20.6418 4.35347 22.8457 2.3043ZM2.18927 2.3043C5.67452 -0.936222 11.61 -0.0794086 14.389 3.35179C17.6781 7.40419 18.3348 15.0847 12.6048 21.9551C9.7626 25.363 6.33731 27.9468 2.33242 29.7065L0.485359 26.7317C6.18245 23.971 10.4406 20.2279 11.044 13.9524C8.47356 13.9524 6.34091 14.0455 4.44137 13.3658C2.27874 12.5919 0.965122 11.1567 0.42601 9.51102C-0.429203 6.93427 -0.0146255 4.35347 2.18927 2.3043Z" fill="currentColor" />
</svg>
