<svg viewBox="0 0 1294 1349">
	<path d="M986.504 294.341C1039.58 370.85 1077.83 445.35 1107.46 520.63C1137.08 595.91 1184.04 705.55 1160.25 820.152C1147.25 882.792 1124.98 988.299 1008.96 1033.96C932.121 1064.19 851.715 1089.95 792.54 1134.13C733.365 1178.32 694.043 1217.54 658.219 1238.66C598.143 1274.07 537.14 1288.96 461.617 1264.36C386.095 1239.77 338.848 1198.26 307.193 1132.98C246.24 1007.27 301.033 940.609 266.063 851.745C231.092 762.881 159.877 772.603 116.935 636.543C93.9953 563.862 107.246 448.177 204.294 341.351C268.146 271.065 416.397 187.32 475.152 168.739C568.518 131.997 701.489 101.96 810.019 147.429C900.931 185.516 928.152 230.366 986.504 294.341Z" fill="currentColor" />
</svg>
