<svg viewBox="0 0 38 30" fill="none" xmlns="http://www.w3.org/2000/svg">
	<path d="M14.7031 27.6957C11.2179 30.9362 5.28244 30.0794 2.50341 26.6482C-0.785695 22.5958 -1.44243 14.9153 4.28762 8.04486C7.12979 4.63703 10.5551 2.05323 14.56 0.293457L16.407 3.26832C10.7099 6.02902 6.45179 9.77209 5.84837 16.0476C8.41883 16.0476 10.5515 15.9545 12.451 16.6342C14.6137 17.4081 15.9273 18.8433 16.4664 20.489C17.3216 23.0657 16.907 25.6465 14.7031 27.6957ZM35.3596 27.6957C31.8743 30.9362 25.9389 30.0794 23.1598 26.6482C19.8707 22.5958 19.214 14.9153 24.9441 8.04486C27.7862 4.63703 31.2115 2.05323 35.2164 0.293457L37.0635 3.26832C31.3664 6.02902 27.1082 9.77209 26.5048 16.0476C29.0753 16.0476 31.2079 15.9545 33.1075 16.6342C35.2701 17.4081 36.5837 18.8433 37.1228 20.489C37.978 23.0657 37.5635 25.6465 35.3596 27.6957Z" fill="currentColor" />
</svg>
