<svg viewBox="0 0 30 26" fill="none" xmlns="http://www.w3.org/2000/svg">
	<path d="M1.24999 10.1667H9.9999C10.6899 10.1667 11.2499 9.60667 11.2499 8.91667C11.2499 8.22668 10.6899 7.66669 9.9999 7.66669H1.24999C0.558744 7.66669 0 8.22668 0 8.91667C0 9.60667 0.558744 10.1667 1.24999 10.1667Z" />
	<path d="M1.24999 17.6666H9.9999C10.6899 17.6666 11.2499 17.1066 11.2499 16.4166C11.2499 15.7266 10.6899 15.1666 9.9999 15.1666H1.24999C0.558744 15.1666 0 15.7266 0 16.4166C0 17.1066 0.558744 17.6666 1.24999 17.6666Z" />
	<path d="M19.9998 22.6665H1.24999C0.558744 22.6665 0 23.2265 0 23.9165C0 24.6065 0.558744 25.1665 1.24999 25.1665H19.9998C20.691 25.1665 21.2498 24.6065 21.2498 23.9165C21.2498 23.2265 20.691 22.6665 19.9998 22.6665Z" />
	<path d="M1.24999 2.66672H19.9998C20.691 2.66672 21.2498 2.10673 21.2498 1.41674C21.2498 0.726742 20.691 0.166748 19.9998 0.166748H1.24999C0.558744 0.166748 0 0.726742 0 1.41674C0 2.10673 0.558744 2.66672 1.24999 2.66672Z" />
	<path d="M29.6335 20.5328L25.2085 16.1078C25.8635 15.1191 26.2497 13.9378 26.2497 12.6666C26.2497 9.22038 23.446 6.41666 19.9998 6.41666C16.5536 6.41666 13.7499 9.22038 13.7499 12.6666C13.7499 16.1128 16.5536 18.9165 19.9998 18.9165C21.271 18.9165 22.4523 18.5303 23.441 17.8753L27.866 22.3002C28.1097 22.544 28.4297 22.6665 28.7497 22.6665C29.0697 22.6665 29.3897 22.544 29.6335 22.3002C30.1222 21.8115 30.1222 21.0215 29.6335 20.5328ZM19.9998 16.4166C17.9286 16.4166 16.2499 14.7378 16.2499 12.6666C16.2499 10.5954 17.9286 8.91663 19.9998 8.91663C22.071 8.91663 23.7498 10.5954 23.7498 12.6666C23.7498 14.7378 22.071 16.4166 19.9998 16.4166Z" />
</svg>
